<svg version="1.2" xmlns="http://www.w3.org/2000/svg" viewBox="0 0 123 64" width="123" height="64">
	<style>
		.s0 { fill: #ffffff } 
	</style>
	<path fill-rule="evenodd" class="s0" d="m123 0l-0.48 0.48h-0.08l-0.08 0.08v0.08l-0.08 0.07h-0.08l-0.55 0.56h-0.08l-0.4 0.4h-0.08l-0.08 0.08v0.08l-0.08 0.08h-0.08l-0.48 0.47h-0.08l-0.63 0.64h-0.08l-0.08 0.08v0.08h-0.08l-0.48 0.47h-0.08l-0.4 0.4h-0.08l-0.08 0.08v0.08h-0.08l-0.55 0.55h-0.08l-0.64 0.64h-0.08l-0.56 0.56h-0.08l-0.71 0.71h-0.08l-0.56 0.56h-0.08l-0.48 0.47h-0.08l-0.63 0.64h-0.08l-0.8 0.79h-0.08l-0.56 0.56h-0.08l-0.55 0.55h-0.08l-0.64 0.64h-0.08l-0.56 0.55h-0.08l-0.47 0.48h-0.08l-0.08 0.08v0.08h-0.08l-0.56 0.56h-0.08l-0.56 0.55h-0.08l-0.08 0.08v0.08h-0.08l-0.63 0.64h-0.08l-0.48 0.47h-0.08l-0.48 0.48h-0.08l-0.16 0.16h-3.02l-0.96 0.95h-0.08l-0.95 0.95h-0.08l-0.08 0.08v0.08l-0.24 0.24h-0.08l-1.43 1.43h-0.08l-1.51 1.51h-0.08l-1.12 1.11h-0.08l-0.08 0.08v0.08l-0.08 0.08h-0.08l-1.27 1.27h-0.08l-1.51 1.51h-0.08l-1.36 1.35h-0.08l-0.16 0.16v0.07l-0.15 0.16h-0.08l-0.8 0.8h-0.08l-0.08 0.08v0.08h-0.08l-0.08 0.08v0.08h-0.08l-0.48 0.47h-11.06l-0.24 0.24v0.08l-0.16 0.16v0.08l-0.16 0.16v0.08l-0.24 0.23v0.08l-0.24 0.24v0.08l-0.08 0.08v0.08l-0.24 0.24v0.08l-0.15 0.16v0.08l-0.24 0.23v0.08l-0.16 0.16v0.08l-0.24 0.24v0.08l-0.24 0.24v0.08l-0.16 0.16v0.07l-0.16 0.16v0.08l-0.16 0.16v0.08l-0.24 0.24v0.08l-0.16 0.16v0.08l-0.24 0.24v0.07l-0.23 0.24v0.16h-0.08l-0.08 0.08v0.08l-0.16 0.16v0.08l-0.24 0.24v0.08l-0.16 0.16v0.07l-0.24 0.24v0.08l-0.24 0.24v0.08l-0.16 0.16v0.08l-0.16 0.16v0.08l-0.24 0.23v0.08l-0.15 0.16v0.08l-0.16 0.16v0.08l-0.24 0.24v0.08l-0.16 0.16v0.08l-0.24 0.23v0.08l-0.24 0.24v0.08l-0.16 0.16v0.08l-0.16 0.16v0.08l-0.16 0.16v0.08l-0.24 0.23v0.08l-0.16 0.16v0.08l-0.23 0.24v0.08l-0.16 0.16v0.08l-0.24 0.24v0.08l-0.16 0.15v0.08l-0.24 0.24v0.08l-0.08 0.08v0.08l-0.24 0.24v0.08l-0.24 0.24v0.08l-0.16 0.15v0.08l-0.24 0.24v0.08l-0.23 0.24v0.08l-0.16 0.16v0.08l-0.16 0.16v0.07l-0.24 0.24v0.08l-0.16 0.16v0.08l-0.24 0.24v0.08l-0.16 0.16v0.08l-0.24 0.23v0.08l-0.16 0.16v0.08l-0.16 0.16v0.08l-0.24 0.24v0.08l-0.15 0.16v0.08l-0.16 0.16v0.07l-0.32 0.32v0.08l-0.16 0.16v0.08l-0.16 0.16v0.08l-0.24 0.24v0.08l-0.16 0.15v0.08l-0.16 0.16v0.08l-0.16 0.16v0.08l-0.32 0.32v0.08l-0.15 0.16v0.08l-0.16 0.15v0.08l-0.24 0.24v0.08l-0.16 0.16v0.08l-0.16 0.16v0.08l-0.24 0.24v0.08l-0.24 0.23v0.08l-0.16 0.16v0.08l-0.16 0.16v0.08l-0.24 0.24v0.08l-0.23 0.24v0.07l-0.08 0.08v0.08l-0.24 0.24v0.08l-0.24 0.24v0.08l-0.16 0.16v0.08l-0.24 0.24v0.07l-0.16 0.16v0.08l-0.16 0.16v0.08l-0.24 0.24v0.08l-0.16 0.16v0.08l-0.24 0.24v0.07l-0.15 0.16v0.08l-0.16 0.16v0.08l-0.24 0.24v0.08l-0.16 0.16v0.08l-0.24 0.24v0.07l-0.16 0.16v0.08l-0.24 0.24v0.08l-0.16 0.16v0.08l-0.16 0.16v0.08l-0.24 0.23v0.08l-0.24 0.24v0.08l-0.15 0.16v0.08l-0.16 0.16v0.08l-0.24 0.24v0.08l-0.24 0.23v0.08l-0.24 0.24v0.16l-0.32 0.32v0.08l-0.16 0.16v0.08l-0.16 0.15v0.08l-0.24 0.24v0.08l-0.15 0.16v0.08l-0.24 0.24v0.08l-0.24 0.24v0.08l-0.16 0.15v0.08l-0.08 0.08v0.08l-0.24 0.24v0.08l-0.24 0.24v0.08l-0.16 0.16v0.08l-0.24 0.23v0.08l-0.24 0.24v0.08l-0.16 0.16v0.08l-0.15 0.16v0.08l-0.24 0.24v0.07l-0.16 0.16v0.08l-0.24 0.24v0.08l-0.16 0.16v0.08l-0.16 0.16v0.08l-0.24 0.24v0.07l-0.16 0.16v0.08l-0.24 0.24v0.08l-0.08 0.08v-5.48l0.08-0.08v-11.99l0.08-0.08v-13.73l0.08-0.08v-1.67l-0.08-0.08h-0.08l-0.24 0.24v0.08l-0.23 0.23v0.08l-0.16 0.16v0.08l-0.24 0.24v0.08l-0.16 0.16v0.08l-0.16 0.16v0.08l-0.24 0.23v0.08l-0.16 0.16v0.08l-0.24 0.24v0.08l-0.16 0.16v0.08l-0.24 0.24v0.08l-0.08 0.08v0.07l-0.31 0.32v0.08l-0.16 0.16v0.08l-0.16 0.16v0.08l-0.16 0.16v0.08l-0.24 0.23v0.08l-0.16 0.16v0.08l-0.24 0.24v0.08l-0.16 0.16v0.08l-0.16 0.16v0.08l-0.24 0.23v0.08l-0.23 0.24v0.08l-0.08 0.08v0.08l-0.16 0.16v0.08l-0.24 0.24v0.08l-0.16 0.15v0.08l-0.24 0.24v0.08l-0.24 0.24v0.08l-0.24 0.24v0.08l-0.16 0.16v0.08l-0.24 0.23v0.08l-0.16 0.16v0.08l-0.07 0.08v0.08l-0.24 0.24v0.08l-0.24 0.24v0.08l-0.16 0.15v0.08l-0.24 0.24v0.08l-0.16 0.16v0.08l-0.24 0.24v0.08l-0.16 0.16v0.07l-0.24 0.24v0.08l-0.16 0.16v0.08l-0.16 0.16v0.08l-0.15 0.16v0.08l-0.32 0.31h-2.79l-0.08-0.07h-4.86l-0.07-0.08h-4.86l-0.08-0.08h-5.02l-0.08-0.08h-2.46v-0.08l0.16-0.16v-0.08l0.31-0.32v-0.08l0.16-0.16v-0.08l0.24-0.23v-0.08l0.24-0.24v-0.08l0.24-0.24v-0.08l0.24-0.24v-0.08l0.24-0.23v-0.08l0.32-0.32v-0.08l0.23-0.24v-0.08l0.16-0.16v-0.08l0.24-0.23v-0.08l0.16-0.16v-0.08l0.32-0.32v-0.08l0.24-0.24v-0.08l0.24-0.24v-0.07l0.32-0.32v-0.08l0.08-0.08v-0.08l0.31-0.32v-0.08l0.16-0.16v-0.08l0.24-0.23v-0.08l0.24-0.24v-0.08l0.24-0.24v-0.08l0.32-0.32v-0.08l0.24-0.23v-0.08l0.16-0.16v-0.08l0.32-0.32v-0.08l0.15-0.16v-0.08l0.24-0.23v-0.08l0.32-0.32v-0.08l0.16-0.16v-0.08l0.24-0.24v-0.08l0.24-0.24v-0.07l0.16-0.16v-0.08l0.32-0.32v-0.08l0.24-0.24v-0.08l0.23-0.24v-0.08l0.24-0.23v-0.08l0.24-0.24v-0.08l0.24-0.24v-0.08l0.24-0.24v-0.08l0.16-0.15v-0.08l0.32-0.32v-0.08l0.24-0.24v-0.08l0.15-0.16v-0.08l0.32-0.31v-0.08l0.24-0.24v-0.08l-0.16-0.16h-0.08l-0.08 0.08h-2.7l-0.16 0.16v0.08l-0.08 0.08v0.08l-0.32 0.31v0.08l-0.24 0.24v0.08l-0.24 0.24v0.08l-0.24 0.24v0.08l-0.24 0.23v0.08l-0.23 0.24v0.08l-0.16 0.16v0.08l-0.32 0.32v0.08l-0.24 0.23v0.08l-0.16 0.16v0.08l-0.24 0.24v0.08l-0.32 0.32v0.08l-0.16 0.16v0.08l-0.24 0.23v0.08l-0.15 0.16v0.08l-0.24 0.24v0.08l-0.24 0.24v0.08l-0.24 0.23v0.08l-0.24 0.24v0.08l-0.24 0.24v0.08l-0.16 0.16v0.08l-0.32 0.31v0.08l-0.16 0.16v0.08l-0.23 0.24v0.08l-0.16 0.16v0.08l-0.32 0.32v0.08l-0.24 0.23v0.08l-0.16 0.16v0.08l-0.24 0.24v0.08l-0.24 0.24v0.08l-0.24 0.23v0.08l-0.24 0.24v0.08l-0.23 0.24v0.08l-0.24 0.24v0.08l-0.24 0.24v0.07l-0.24 0.24v0.08l-0.24 0.24v0.08l-0.16 0.16v0.08l-0.24 0.24v0.08l-0.16 0.15v0.08l-0.24 0.24v0.08l-0.31 0.32v0.08l-0.24 0.24v0.08l-0.16 0.15v0.08l-0.32 0.32v0.08l-0.16 0.16v0.08l-0.24 0.24v0.08l-0.32 0.31h-19.98v-0.07l0.32-0.32v-0.08l0.16-0.16v-0.08l0.24-0.24v-0.08l0.24-0.24v-0.08l0.31-0.31v-0.08l0.16-0.16v-0.08l0.24-0.24v-0.08l0.24-0.24v-0.08l0.24-0.23v-0.08l0.24-0.24v-0.08l0.16-0.16v-0.08l0.32-0.32v-0.08l0.23-0.23v-0.08l0.24-0.24v-0.08l0.24-0.24v-0.08l0.24-0.24v-0.08l0.24-0.23v-0.08l0.24-0.24v-0.08l0.16-0.16v-0.08l0.24-0.24v-0.08l0.24-0.24v-0.08l0.23-0.23v-0.08l0.24-0.24v-0.08l0.24-0.24v-0.08l0.32-0.32v-0.08l0.16-0.15v-0.08l0.24-0.24v-0.08l0.16-0.16v-0.08l0.32-0.32v-0.08l0.16-0.15v-0.08l0.31-0.32v-0.08l0.24-0.24v-0.08l0.08-0.08v-0.08l0.32-0.32v-0.07l0.24-0.24v-0.08l0.24-0.24v-0.08l0.32-0.32v-0.08l0.16-0.16v-0.08l0.31-0.31v-0.08l0.16-0.16v-0.08l0.16-0.16v-0.08l0.32-0.32v-0.08l0.24-0.23v-0.08l0.16-0.16v-0.08l0.32-0.32v-0.08l0.24-0.24v-0.08l0.24-0.23v-0.08l0.23-0.24v-0.08l0.16-0.16v-0.08l0.24-0.24v-0.08l0.24-0.24v-0.07l0.24-0.24v-0.08l0.32-0.32v-0.08l0.24-0.24v-0.08l0.08-0.08v-0.08l0.32-0.31v-0.08l0.16-0.16v-0.08l0.31-0.32v-0.08l0.16-0.16v-0.08l0.32-0.31v-0.08l0.24-0.24v-0.08l0.24-0.24v-0.08l0.16-0.16v-0.08l0.32-0.31v-0.08l0.16-0.16v-0.08l0.23-0.24v-0.08l0.24-0.24v-0.08l0.32-0.31v-0.08l0.24-0.24v-0.08l0.16-0.16v-0.08l0.24-0.24v-0.08l0.24-0.24v-0.08l0.24-0.23v-0.08l0.24-0.24v-0.08l0.23-0.24v-0.08l0.24-0.24v-0.08l0.24-0.23v-0.08l0.24-0.24v-0.08l0.24-0.24v-0.08l0.16-0.16v-0.08l0.24-0.24v-0.07l0.24-0.24v-0.08l0.24-0.24v-0.08l0.31-0.32v-0.08l0.24-0.24v-0.07l0.16-0.16v-0.08l0.24-0.24v-0.08l0.24-0.24v-0.08l0.24-0.24v-0.08l0.16-0.15v-0.08l0.4-0.4v-0.08l0.15-0.16v-0.08l0.16-0.16v-0.08l0.32-0.31v-0.08l0.24-0.24v-0.08l0.24-0.24v-0.08l0.24-0.24v-0.08l0.16-0.16v-0.07l0.32-0.32v-0.08l0.16-0.16v-0.08l0.23-0.24v-0.08l0.32-0.32v-0.07l0.16-0.16v-0.08l0.16-0.16v-0.08h0.08l0.08-0.08v-0.08l0.16-0.16v-0.08l0.24-0.24v-0.08l0.24-0.23v-0.08l0.24-0.24v-0.08l0.24-0.24v-0.08l0.23-0.24v-0.08l0.24-0.23v-0.08l0.16-0.16v-0.08l0.24-0.24v-0.08l0.32-0.32v-0.08l0.24-0.23v-0.08l0.16-0.16v-0.08l0.24-0.24v-0.08l0.24-0.24v-0.08l0.23-0.24v-0.08l0.24-0.23v-0.08l0.24-0.24v-0.08l0.24-0.24v-0.08l0.24-0.24v-0.08l0.24-0.23v-0.08l0.24-0.24v-0.08l0.16-0.16v-0.08l0.31-0.32v-0.08l0.24-0.23v-0.08l0.24-0.24v-0.08l0.16-0.16v-0.08l0.24-0.24v-0.08l0.24-0.24v-0.07l0.24-0.24v-0.08l0.24-0.24v-0.08l0.24-0.24v-0.08l0.23-0.24v-0.08l0.24-0.23v-0.08l0.24-0.24h16.08l0.08-0.08h3.11l0.08 0.08 0.08-0.08 0.08 0.08h0.08l0.08-0.08h0.39l-0.08 0.08v0.08l-0.31 0.32v0.08l-0.24 0.23v0.08l-0.24 0.24v0.08l-0.24 0.24v0.08l-0.24 0.24v0.08l-0.24 0.23v0.08l-0.24 0.24v0.08l-0.16 0.16v0.08l-0.23 0.24v0.08l-0.24 0.23v0.08l-0.24 0.24v0.08l-0.24 0.24v0.08l-0.32 0.32v0.08l-0.16 0.16v0.07l-0.24 0.24v0.08l-0.16 0.16v0.08l-0.24 0.24v0.08l-0.23 0.24v0.08l-0.24 0.23v0.08l-0.32 0.32v0.08l-0.16 0.16v0.08l-0.24 0.24v0.08l-0.32 0.31v0.08l-0.24 0.24v0.08l-0.16 0.16v0.08l-0.24 0.24v0.08l-0.23 0.24v0.07l-0.24 0.24v0.08l-0.16 0.16v0.08l-0.24 0.24v0.08l-0.32 0.32v0.07l-0.24 0.24v0.08l-0.16 0.16v0.08l-0.32 0.32v0.08l-0.23 0.24v0.08l-0.24 0.23v0.08l-0.16 0.16v0.08l-0.24 0.24v0.08l-0.24 0.24v0.08l0.16 0.16h1.27l0.08-0.08h1.36l0.31-0.32v-0.08l0.24-0.24v-0.08l0.24-0.24v-0.08l0.24-0.23v-0.08l0.24-0.24v-0.08l0.16-0.16v-0.08l0.32-0.32v-0.08l0.24-0.24v-0.07l0.23-0.24v-0.08l0.16-0.16v-0.08l0.32-0.32v-0.08l0.16-0.16v-0.08l0.24-0.23v-0.08l0.32-0.32v-0.08l0.24-0.24v-0.08l0.24-0.24v-0.08l0.24-0.23v-0.08l0.15-0.16v-0.08l0.24-0.24v-0.08l0.24-0.24v-0.08l0.24-0.23v-0.08l0.24-0.24v-0.08l0.32-0.32v-0.08l0.08-0.08v-0.08l0.32-0.32v-0.07l0.24-0.24v-0.08l0.15-0.16v-0.08l0.24-0.24v-0.08l0.24-0.24v-0.08l0.32-0.31v-0.08l0.16-0.16v-0.08l0.24-0.24v-0.08l0.32-0.32v-0.08l0.16-0.15v-0.08l0.24-0.24v-0.08l0.23-0.24v-0.08l0.24-0.24v-0.08l0.24-0.23v-0.08l0.16-0.16v-0.08l0.24-0.24h12.98v2.46l0.08 0.08v11.43l0.08 0.08 0.08-0.08h0.07l0.08-0.07v-0.08l0.08-0.08v-0.08l0.24-0.24v-0.08l0.24-0.24v-0.08l0.24-0.24v-0.08l0.24-0.23v-0.08l0.24-0.24v-0.08l0.24-0.24v-0.08l0.24-0.24v-0.08l0.16-0.16v-0.07l0.31-0.32v-0.08l0.16-0.16v-0.08l0.24-0.24v-0.08l0.24-0.24v-0.08l0.24-0.23v-0.08l0.16-0.16v-0.08l0.32-0.32v-0.08l0.16-0.16v-0.08l0.24-0.23v-0.08l0.23-0.24v-0.08l0.24-0.24v-0.08l0.24-0.24v-0.08l0.24-0.23v-0.08l0.16-0.16v-0.08l0.24-0.24v-0.08l0.16-0.16v-0.08l0.32-0.32v-0.08l0.16-0.15v-0.08l0.39-0.4v-0.08l0.08-0.08v-0.08l0.32-0.32v-0.08l0.16-0.15v-0.08l0.16-0.16v-0.08l0.32-0.32v-0.08l0.16-0.16v-0.08l0.16-0.16v-0.08h0.08l0.08-0.08v-0.07l0.16-0.16v-0.08l0.23-0.24v-0.08l0.24-0.24v-0.08l0.24-0.24v-0.08l0.24-0.23v-0.08l0.16-0.16v-0.08l0.24-0.24v-0.08l0.24-0.24v-0.08l0.24-0.23v-0.08l0.24-0.24v-0.08l0.15-0.16h19.67l0.08-0.08zm-41.72 4.53l-0.08 0.08v0.07l-0.24 0.24v0.08l-0.24 0.24v0.08l-0.23 0.24v0.08l-0.16 0.16v0.08l-0.24 0.23v0.08l-0.24 0.24v0.08l-0.24 0.24v0.08l-0.24 0.24v0.08l-0.16 0.16v0.07l-0.24 0.24v0.08l-0.24 0.24v0.08l-0.23 0.24v0.08l-0.24 0.24v0.08l-0.24 0.23v0.08l-0.24 0.24v0.08l-0.16 0.16v0.08l-0.32 0.32v0.08l-0.16 0.15v0.08l-0.24 0.24v0.08l-0.24 0.24v0.08l-0.16 0.16v0.08l-0.31 0.31v0.08l-0.16 0.16v0.08l-0.24 0.24v0.08l-0.32 0.32v0.08l-0.24 0.24v0.07l-0.24 0.24v0.08l-0.16 0.16v0.08l-0.24 0.24v0.08l-0.16 0.16v0.08l-0.23 0.23v0.08l-0.24 0.24v0.08l-0.32 0.32v0.08l-0.16 0.16v0.08l-0.16 0.16v0.08l-0.24 0.23v0.08l-0.32 0.32v0.08l-0.16 0.16v0.08l-0.23 0.24v0.08l-0.16 0.15v0.08l-0.24 0.24v0.08l-0.24 0.24v0.08l-0.24 0.24v0.08l-0.24 0.23v0.08l-0.24 0.24v0.08l-0.24 0.24v0.08l-0.24 0.24v0.08l-0.23 0.24v0.07l-0.24 0.24v0.08l-0.16 0.16v0.08l-0.24 0.24v0.08l-0.16 0.16v0.08l-0.24 0.23v0.08l-0.24 0.24v0.08l-0.24 0.24v0.08l-0.32 0.32v0.08l-0.16 0.16v0.07l-0.23 0.24v0.08l-0.16 0.16v0.08l-0.24 0.24v0.08l-0.32 0.32v0.07l-0.08 0.08v0.08l-0.32 0.32v0.08l-0.16 0.16v0.08l-0.32 0.32v0.08l-0.24 0.23v0.08l-0.23 0.24v0.08l-0.16 0.16v0.08l-0.24 0.24v0.08l-0.24 0.24v0.07l-0.24 0.24v0.08l-0.24 0.24v0.08l-0.24 0.24v0.08l-0.24 0.24v0.08l-0.16 0.15v0.08l-0.15 0.16h-0.08l0.08-0.08v-0.08l-0.08-0.08v-0.08l0.08-0.07v-1.83l-0.08-0.08v-1.19l0.08-0.08v-0.56l-0.08-0.08v-18.82l-0.16-0.15h-6.05l-0.16 0.15v0.08l-0.24 0.24v0.08l-0.24 0.24v0.08l-0.24 0.24v0.08l-0.24 0.24v0.07l-0.24 0.24v0.08l-0.24 0.24v0.08l-0.23 0.24v0.08l-0.24 0.24v0.08l-0.24 0.23v0.08l-0.24 0.24v0.08l-0.24 0.24v0.08l-0.16 0.16v0.08l-0.32 0.31v0.08l-0.16 0.16v0.08l-0.32 0.32v0.08l-0.23 0.24v0.08l-0.24 0.23v0.08l-0.24 0.24v0.08l-0.24 0.24v0.08l-0.16 0.16v0.08l-0.24 0.24v0.07l-0.24 0.24v0.08l-0.24 0.24v0.08l-0.32 0.32v0.08l-0.23 0.24v0.07l-0.24 0.24v0.08l-0.16 0.16v0.08l-0.24 0.24v0.08l-0.16 0.16v0.08l-0.32 0.31v0.08l-0.16 0.16v0.08l-0.32 0.32v0.08l-0.16 0.16v0.08l-0.23 0.24v0.07l-0.24 0.24v0.08l-0.24 0.24v0.08l-0.24 0.24v0.08l-0.32 0.31v0.08l-0.16 0.16v0.08h-5.09l-0.08 0.08h-7.41l-0.08 0.08h-1.43l0.08-0.08v-0.08l0.32-0.32v-0.07l0.24-0.24v-0.08l0.24-0.24v-0.08l0.23-0.24v-0.08l0.24-0.24v-0.07l0.32-0.32v-0.08l0.16-0.16v-0.08l0.4-0.4v-0.08l0.24-0.23v-0.08l0.24-0.24v-0.08l0.32-0.32v-0.08l0.23-0.24v-0.08l0.32-0.31v-0.08l0.24-0.24v-0.08l0.24-0.24v-0.08l0.24-0.24v-0.08l0.24-0.23v-0.08h0.08l0.08-0.08v-0.08l0.08-0.08v-0.08l0.32-0.32v-0.08l0.39-0.4v-0.08l0.16-0.15v-0.08l0.32-0.32v-0.08l0.16-0.16v-0.08l0.24-0.24v-0.08l0.4-0.39v-0.08l0.24-0.24v-0.08l0.31-0.32v-0.08l0.32-0.31v-0.08l0.24-0.24v-0.08l0.24-0.24v-0.08l0.16-0.16v-0.08l0.32-0.32v-0.07l0.32-0.32v-0.08l0.24-0.24v-0.08l0.23-0.24v-0.08l0.16-0.16v-0.15l-0.08-0.08h-9.15l-0.08 0.08h-0.08l-0.16 0.15v0.08l-0.32 0.32v0.08l-0.24 0.24v0.08l-0.08 0.08v0.08l-0.32 0.31v0.08l-0.15 0.16v0.08l-0.32 0.32v0.08l-0.16 0.16v0.08l-0.32 0.32v0.07l-0.24 0.24v0.08l-0.24 0.24v0.08l-0.16 0.16v0.08l-0.24 0.24v0.08l-0.23 0.23v0.08l-0.24 0.24v0.08l-0.24 0.24v0.08l-0.24 0.24v0.08l-0.32 0.31v0.08l-0.16 0.16v0.08l-0.24 0.24v0.08l-0.24 0.24v0.08l-0.24 0.23v0.08l-0.23 0.24v0.08l-0.24 0.24v0.08l-0.16 0.16v0.08l-0.32 0.32v0.07l-0.16 0.16v0.08l-0.32 0.32v0.08l-0.16 0.16v0.08l-0.24 0.24v0.08l-0.24 0.23v0.08l-0.31 0.32v0.08l-0.16 0.16v0.08l-0.16 0.16v0.08l-0.32 0.31v0.08l-0.24 0.24v0.08l-0.24 0.24v0.08l-0.24 0.24v0.08l-0.16 0.16v0.07l-0.39 0.4v0.08l-0.16 0.16v0.08l-0.16 0.16v0.08l-0.32 0.32v0.07l-0.24 0.24v0.08l-0.08 0.08v0.08h-0.08l-0.08 0.08v0.08l-0.16 0.16v0.08l-0.24 0.24v0.08l-0.32 0.31v0.08l-0.23 0.24v0.08l-0.16 0.16v0.08l-0.32 0.32v0.08l-0.16 0.15v0.08l-0.24 0.24v0.08l-0.24 0.24v0.08l-0.16 0.16v0.08l-0.32 0.32v0.07l-0.24 0.24v0.08l-0.23 0.24v0.08l-0.24 0.24v0.08l-0.24 0.24v0.07l-0.24 0.24v0.08l-0.24 0.24v0.08l-0.16 0.16v0.08l-0.32 0.32v0.08l-0.16 0.15v0.08l-0.24 0.24v0.08l-0.15 0.16v0.08h-0.08l-0.08 0.08v0.08l-0.16 0.16v0.08l-0.24 0.23v0.08l-0.32 0.32v0.08l-0.16 0.16v0.08l-0.24 0.24v0.08l-0.24 0.24v0.07l-0.24 0.24v0.08l-0.16 0.16v0.08l-0.23 0.24v0.08l-0.24 0.24v0.08l-0.32 0.31v0.08l-0.16 0.16v0.08l-0.32 0.32v0.08l-0.24 0.24v0.08l-0.24 0.23v0.08l-0.16 0.16v0.08l-0.23 0.24v0.08l-0.24 0.24v0.08l-0.24 0.23v0.08l-0.24 0.24v0.08l-0.24 0.24v0.08l-0.24 0.24v0.08l-0.24 0.24v0.07l-0.24 0.24v0.08l-0.24 0.24v0.08l-0.23 0.24v0.08l-0.24 0.24v0.08l-0.24 0.23v0.08l-0.16 0.16v0.08l-0.32 0.32v0.08l-0.24 0.24v0.08l-0.16 0.15v0.08l-0.32 0.32v0.08l-0.24 0.24v0.08l-0.23 0.24v0.08l-0.16 0.15v0.08l-0.24 0.24v0.08l-0.24 0.24v0.08l-0.24 0.24v0.08l-0.24 0.24v0.07l-0.24 0.24v0.08l-0.24 0.24v0.08l-0.08 0.08v0.08l0.08 0.08h8.68l0.32-0.32v-0.08l0.24-0.24v-0.08l0.16-0.16v-0.07l0.24-0.24v-0.08l0.24-0.24v-0.08l0.15-0.16v-0.08l0.32-0.32v-0.08l0.16-0.15v-0.08l0.24-0.24v-0.08l0.24-0.24v-0.08l0.24-0.24v-0.08l0.24-0.23v-0.08l0.24-0.24v-0.08l0.24-0.24v-0.08l0.15-0.16v-0.08l0.24-0.24v-0.07l0.16-0.16v-0.08l0.32-0.32v-0.08l0.16-0.16v-0.08l0.32-0.32v-0.08l0.24-0.23v-0.08l0.24-0.24v-0.08l0.16-0.16v-0.08l0.23-0.24v-0.08l0.24-0.23v-0.08l0.16-0.16v-0.08l0.24-0.24v-0.08l0.24-0.24v-0.08l0.16-0.16v-0.08h0.08l0.08-0.08v-0.07l0.16-0.16v-0.08l0.32-0.32v-0.08l0.16-0.16v-0.08l0.23-0.24v-0.08l0.16-0.15v-0.08l0.24-0.24v-0.08l0.24-0.24v-0.08l0.24-0.24v-0.08l0.24-0.23v-0.08l0.24-0.24v-0.08l0.16-0.16v-0.08l0.32-0.32v-0.08l0.15-0.16v-0.08l0.24-0.23v-0.08l0.24-0.24v-0.08l0.24-0.24v-0.08l0.16-0.16v-0.08l0.32-0.31v-0.08l0.16-0.16v-0.08l0.24-0.24v-0.08l0.16-0.16h0.87l0.08-0.08h3.42l0.08-0.08h3.43l0.08-0.08h3.74l0.08-0.08h2.63v0.08l-0.16 0.16v0.08l-0.32 0.32v0.08l-0.24 0.24v0.08l-0.24 0.23v0.08l-0.24 0.24v0.08l-0.16 0.16v0.08l-0.24 0.24v0.08l-0.24 0.24v0.08l-0.15 0.15v0.08l-0.24 0.24v0.08l-0.24 0.24v0.08l-0.24 0.24v0.08l-0.32 0.31v0.08l-0.16 0.16v0.08l-0.16 0.16v0.08l-0.32 0.32v0.08l-0.16 0.16v0.08l-0.23 0.23v0.08l-0.24 0.24v0.08l-0.24 0.24v0.08l-0.16 0.16v0.08l-0.32 0.31v0.08l-0.16 0.16v0.08l-0.32 0.32v0.08l-0.16 0.16v0.08l-0.24 0.23v0.08l-0.23 0.24v0.08l-0.24 0.24v0.08l-0.24 0.24v0.08l-0.24 0.24v0.07l-0.24 0.24v0.08l-0.24 0.24v0.08l-0.16 0.16v0.08l-0.24 0.24v0.08l-0.24 0.23v0.08l-0.23 0.24v0.08l-0.24 0.24v0.08l-0.24 0.24v0.08l-0.16 0.15v0.08l-0.24 0.24v0.08l-0.24 0.24v0.08l-0.24 0.24v0.08l-0.16 0.16v0.08l-0.32 0.31v0.08l-0.23 0.24v0.08l-0.24 0.24v0.08l-0.24 0.24v0.08l-0.16 0.15v0.08l-0.24 0.24v0.08l-0.08 0.08v0.08l0.08 0.08h2.71l0.08 0.08h5.97l0.08 0.08h0.08l0.08-0.08h0.08l0.23-0.24v-0.08l0.24-0.24v-0.08l0.16-0.16v-0.07l0.16-0.16v-0.08l0.24-0.24v-0.08l0.16-0.16v-0.08l0.16-0.16v-0.08l0.24-0.24v-0.07l0.16-0.16v-0.08l0.16-0.16v-0.08l0.24-0.24v-0.08l0.15-0.16v-0.08l0.24-0.24v-0.07l0.16-0.16v-0.08l0.24-0.24v-0.08l0.16-0.16v-0.08l0.16-0.16v-0.08l0.24-0.23v-0.08l0.16-0.16v-0.08l0.24-0.24v-0.08l0.08-0.08v-0.08l0.24-0.24v-0.08l0.23-0.23v-0.08l0.24-0.24v-0.08l0.16-0.16v-0.08l0.16-0.16v-0.08l0.16-0.16v-0.08l0.24-0.23v-0.08l0.24-0.24v-0.08l0.16-0.16v-0.08l0.16-0.16v-0.08l0.24-0.24v-0.08l0.08-0.08v-0.07l0.31-0.32v-0.08l0.16-0.16v-0.08l0.24-0.24v-0.08l0.08-0.08v-0.08l0.24-0.23v-0.08l0.24-0.24v-0.08l0.16-0.16v-0.08l0.24-0.24v-0.08l0.16-0.16v-0.08l0.16-0.15v-0.08l0.15-0.16v-0.08l0.24-0.24v-0.08l0.24-0.24v-0.08l0.08-0.08v-0.08l0.24-0.23v-0.08l0.24-0.24v-0.08l0.16-0.16v-0.08l0.24-0.24v-0.08l0.16-0.16v-0.08l0.16-0.15v-0.08l0.16-0.16v-0.08l0.23-0.24v-0.08l0.24-0.24v-0.08l0.16-0.16v-0.08l0.16-0.15v-0.08l0.24-0.24v-0.08l0.16-0.16v-0.08l0.24-0.24v-0.08l0.16-0.16v-0.07l0.24-0.24v-0.08l0.16-0.16v-0.08l0.16-0.16v-0.08l0.23-0.24v-0.08l0.16-0.16v-0.07l0.24-0.24v-0.08l0.16-0.16v-0.08l0.16-0.16v-0.08l0.24-0.24v-0.08l0.16-0.16v-0.07l0.16-0.16v-0.08l0.24-0.24v-0.08l0.16-0.16v-0.08l0.23-0.24v-0.08l0.16-0.16v-0.07l0.24-0.24v-0.08l0.16-0.16v-0.08l0.16-0.16v-0.08l0.24-0.24v-0.08l0.16-0.16v-0.07l0.16-0.16v6.43l-0.08 0.08v12.62l-0.08 0.08v11.91l-0.08 0.08v1.91l0.08 0.08h0.08l0.32-0.32v-0.08l0.16-0.16v-0.08l0.24-0.24v-0.08l0.23-0.23v-0.08l0.16-0.16v-0.08l0.16-0.16v-0.08l0.24-0.24v-0.08l0.16-0.16v-0.07l0.16-0.16v-0.08l0.24-0.24v-0.08l0.24-0.24v-0.08l0.16-0.16v-0.08l0.24-0.23v-0.08l0.15-0.16v-0.08l0.16-0.16v-0.08l0.16-0.16v-0.08l0.24-0.24v-0.08l0.24-0.23v-0.08l0.16-0.16v-0.08l0.16-0.16v-0.08l0.24-0.24v-0.08l0.24-0.24v-0.08l0.08-0.08v-0.07l0.24-0.24v-0.08l0.23-0.24v-0.08l0.16-0.16v-0.08l0.16-0.16v-0.08l0.24-0.23v-0.08l0.24-0.24v-0.08l0.16-0.16v-0.08l0.16-0.16v-0.08l0.24-0.24v-0.08l0.16-0.15v-0.08l0.24-0.24v-0.08l0.16-0.16v-0.08l0.15-0.16v-0.08l0.16-0.16v-0.08l0.24-0.23v-0.08l0.24-0.24v-0.08l0.24-0.24v-0.08l0.16-0.16v-0.08l0.16-0.16v-0.08l0.24-0.23v-0.08l0.16-0.16v-0.08l0.24-0.24v-0.08l0.15-0.16v-0.08l0.24-0.24v-0.07l0.16-0.16v-0.08l0.08-0.08v-0.08l0.32-0.32v-0.08l0.08-0.08v-0.08l0.32-0.32v-0.07l0.16-0.16v-0.08l0.24-0.24v-0.08l0.24-0.24v-0.08l0.08-0.08v-0.08l0.23-0.23v-0.08l0.24-0.24v-0.08l0.16-0.16v-0.08l0.16-0.16v-0.08l0.24-0.24v-0.08l0.16-0.15v-0.08l0.24-0.24v-0.08l0.16-0.16v-0.08l0.24-0.24v-0.08l0.16-0.16v-0.08l0.23-0.23v-0.08l0.16-0.16v-0.08l0.16-0.16v-0.08l0.24-0.24v-0.08l0.16-0.16v-0.08l0.16-0.15v-0.08l0.24-0.24v-0.08l0.16-0.16v-0.08l0.24-0.24v-0.08l0.16-0.16v-0.08l0.24-0.23v-0.08l0.15-0.16v-0.08l0.16-0.16v-0.08l0.24-0.24v-0.08l0.16-0.16v-0.08l0.24-0.23v-0.08l0.24-0.24v-0.08l0.16-0.16v-0.08l0.16-0.16v-0.08l0.24-0.24v-0.07l0.16-0.16v-0.08l0.15-0.16v-0.08l0.24-0.24v-0.08l0.24-0.24v-0.08l0.16-0.16v-0.07l0.16-0.16v-0.08l0.24-0.24v-0.08l0.24-0.24v-0.08l0.16-0.16v-0.08l0.16-0.16h11.54l0.08-0.07h0.08l0.96-0.96h0.08l1.59-1.59h0.08l0.08-0.07v-0.08h0.08l0.08-0.08v-0.08h0.08l1.03-1.04h0.08l1.35-1.35h0.08l0.08-0.07v-0.08h0.08l0.72-0.72v-0.08l-0.08-0.08h-2.31l-0.08-0.08h-11.07l0.16-0.16v-0.08l0.32-0.31v-0.08l0.24-0.24v-0.08l0.16-0.16v-0.08l0.32-0.32v-0.07l0.24-0.24v-0.08l0.24-0.24v-0.08l0.24-0.24v-0.08l0.23-0.24v-0.08l0.24-0.23v-0.08l0.24-0.24v-0.08l0.24-0.24v-0.08l0.24-0.24v-0.08l0.32-0.31v-0.08l0.16-0.16v-0.08l0.32-0.32v-0.08l0.23-0.24v-0.08l0.24-0.23v-0.08l0.24-0.24v-0.08l0.08-0.08h8.92l0.08-0.08h9.87l0.32-0.32h0.08l0.56-0.55h0.07l0.56-0.56h0.08l0.56-0.55h0.08l0.71-0.72h0.08l0.56-0.56h0.08l0.64-0.63h0.08l0.56-0.56h0.07l0.72-0.71h0.08l0.56-0.56h0.08l0.32-0.31-0.16-0.16h-21.66l-0.08 0.08h-7.64l-0.08-0.08-0.08 0.08z"/>
</svg>